<?xml version="1.0" encoding="UTF-8" standalone="no"?><svg xmlns="http://www.w3.org/2000/svg" xmlns:xlink="http://www.w3.org/1999/xlink" clip-rule="evenodd" stroke-miterlimit="10" viewBox="0 0 959 540"><desc>SVG generated by Keynote</desc><defs><radialGradient id="gradSh1.73" cx="0.0" cy="0.0" r="100.0" fx="0.0" fy="0.0" gradientUnits="userSpaceOnUse" gradientTransform="matrix(-2.71, -4.80, -4.80, 2.71, 855.2, 374.8)"><stop offset="0.00000" stop-color="#F2F2F2"></stop><stop offset="0.10411" stop-color="#F3F3F3"></stop><stop offset="0.48680" stop-color="#FEFEFE"></stop><stop offset="1.00000" stop-color="#D9D9D9"></stop></radialGradient></defs><g transform="matrix(1.00, 0.00, -0.00, -1.00, 0.0, 540.0)"><g><clipPath id="clip0x7fccfda72d70"><path d="M 0.0 540.0 L 959.0 540.0 L 959.0 0.0 L 0.0 0.0 Z M 0.0 540.0 "></path></clipPath><g clip-path="url(#clip0x7fccfda72d70)"><path d="M 0.0 540.0 L 959.0 540.0 L 959.0 0.0 L 0.0 0.0 Z M 0.0 540.0 " fill="url(#gradSh1.73)"></path></g></g><image xlink:href="A5B12318CE3E287F6E72E6EEAED3D520.png" width="383.00" height="48.00" transform="matrix(1.00, 0.00, -0.00, -1.00, 292.0, 414.0)"></image><text xml:space="preserve" font-family="CenturyGothic-Bold,Century Gothic" font-weight="bold" font-size="54.0" fill="#CACACA" transform="matrix(1.00, 0.00, -0.00, -1.00, 291.6, 371.0)">G</text><text xml:space="preserve" font-family="CenturyGothic-Bold,Century Gothic" font-weight="bold" font-size="54.0" fill="#CACACA" transform="matrix(1.00, 0.00, -0.00, -1.00, 336.9, 371.0)">e</text><text xml:space="preserve" font-family="CenturyGothic-Bold,Century Gothic" font-weight="bold" font-size="54.0" fill="#CACACA" transform="matrix(1.00, 0.00, -0.00, -1.00, 371.5, 371.0)">n</text><text xml:space="preserve" font-family="CenturyGothic-Bold,Century Gothic" font-weight="bold" font-size="54.0" fill="#CACACA" transform="matrix(1.00, 0.00, -0.00, -1.00, 403.9, 371.0)">e</text><text xml:space="preserve" font-family="CenturyGothic-Bold,Century Gothic" font-weight="bold" font-size="54.0" fill="#CACACA" transform="matrix(1.00, 0.00, -0.00, -1.00, 438.5, 371.0)">r</text><text xml:space="preserve" font-family="CenturyGothic-Bold,Century Gothic" font-weight="bold" font-size="54.0" fill="#CACACA" transform="matrix(1.00, 0.00, -0.00, -1.00, 455.7, 371.0)">a</text><text xml:space="preserve" font-family="CenturyGothic-Bold,Century Gothic" font-weight="bold" font-size="54.0" fill="#CACACA" transform="matrix(1.00, 0.00, -0.00, -1.00, 491.4, 371.0)">l</text><text xml:space="preserve" font-family="CenturyGothic-Bold,Century Gothic" font-weight="bold" font-size="54.0" fill="#CACACA" transform="matrix(1.00, 0.00, -0.00, -1.00, 504.3, 371.0)">i</text><text xml:space="preserve" font-family="CenturyGothic-Bold,Century Gothic" font-weight="bold" font-size="54.0" fill="#CACACA" transform="matrix(1.00, 0.00, -0.00, -1.00, 517.2, 371.0)">z</text><text xml:space="preserve" font-family="CenturyGothic-Bold,Century Gothic" font-weight="bold" font-size="54.0" fill="#CACACA" transform="matrix(1.00, 0.00, -0.00, -1.00, 542.1, 371.0)">a</text><text xml:space="preserve" font-family="CenturyGothic-Bold,Century Gothic" font-weight="bold" font-size="54.0" fill="#CACACA" transform="matrix(1.00, 0.00, -0.00, -1.00, 577.7, 371.0)">t</text><text xml:space="preserve" font-family="CenturyGothic-Bold,Century Gothic" font-weight="bold" font-size="54.0" fill="#CACACA" transform="matrix(1.00, 0.00, -0.00, -1.00, 593.9, 371.0)">i</text><text xml:space="preserve" font-family="CenturyGothic-Bold,Century Gothic" font-weight="bold" font-size="54.0" fill="#CACACA" transform="matrix(1.00, 0.00, -0.00, -1.00, 606.8, 371.0)">o</text><text xml:space="preserve" font-family="CenturyGothic-Bold,Century Gothic" font-weight="bold" font-size="54.0" fill="#CACACA" transform="matrix(1.00, 0.00, -0.00, -1.00, 641.4, 371.0)">n</text></g></svg>