<?xml version="1.0" encoding="UTF-8" standalone="no"?><svg xmlns="http://www.w3.org/2000/svg" xmlns:xlink="http://www.w3.org/1999/xlink" clip-rule="evenodd" stroke-miterlimit="10" viewBox="0 0 462 39"><desc>SVG generated by Keynote</desc><defs></defs><g transform="matrix(1.00, 0.00, -0.00, -1.00, 0.0, 39.0)"><text xml:space="preserve" font-family="CenturyGothic,Century Gothic" font-size="36.0" fill="#545454" transform="matrix(1.00, 0.00, -0.00, -1.00, -0.5, 9.6)">F</text><text xml:space="preserve" font-family="CenturyGothic,Century Gothic" font-size="36.0" fill="#545454" transform="matrix(1.00, 0.00, -0.00, -1.00, 16.9, 9.6)">r</text><text xml:space="preserve" font-family="CenturyGothic,Century Gothic" font-size="36.0" fill="#545454" transform="matrix(1.00, 0.00, -0.00, -1.00, 27.6, 9.6)">o</text><text xml:space="preserve" font-family="CenturyGothic,Century Gothic" font-size="36.0" fill="#545454" transform="matrix(1.00, 0.00, -0.00, -1.00, 51.2, 9.6)">m</text><text xml:space="preserve" font-family="CenturyGothic,Century Gothic" font-size="36.0" fill="#545454" transform="matrix(1.00, 0.00, -0.00, -1.00, 84.9, 9.6)"> </text><text xml:space="preserve" font-family="CenturyGothic,Century Gothic" font-size="36.0" fill="#545454" transform="matrix(1.00, 0.00, -0.00, -1.00, 94.9, 9.6)">t</text><text xml:space="preserve" font-family="CenturyGothic,Century Gothic" font-size="36.0" fill="#545454" transform="matrix(1.00, 0.00, -0.00, -1.00, 107.1, 9.6)">r</text><text xml:space="preserve" font-family="CenturyGothic,Century Gothic" font-size="36.0" fill="#545454" transform="matrix(1.00, 0.00, -0.00, -1.00, 117.9, 9.6)">a</text><text xml:space="preserve" font-family="CenturyGothic,Century Gothic" font-size="36.0" fill="#545454" transform="matrix(1.00, 0.00, -0.00, -1.00, 142.5, 9.6)">i</text><text xml:space="preserve" font-family="CenturyGothic,Century Gothic" font-size="36.0" fill="#545454" transform="matrix(1.00, 0.00, -0.00, -1.00, 149.7, 9.6)">n</text><text xml:space="preserve" font-family="CenturyGothic,Century Gothic" font-size="36.0" fill="#545454" transform="matrix(1.00, 0.00, -0.00, -1.00, 171.7, 9.6)">i</text><text xml:space="preserve" font-family="CenturyGothic,Century Gothic" font-size="36.0" fill="#545454" transform="matrix(1.00, 0.00, -0.00, -1.00, 178.9, 9.6)">n</text><text xml:space="preserve" font-family="CenturyGothic,Century Gothic" font-size="36.0" fill="#545454" transform="matrix(1.00, 0.00, -0.00, -1.00, 200.8, 9.6)">g</text><text xml:space="preserve" font-family="CenturyGothic,Century Gothic" font-size="36.0" fill="#545454" transform="matrix(1.00, 0.00, -0.00, -1.00, 225.1, 9.6)"> </text><text xml:space="preserve" font-family="CenturyGothic,Century Gothic" font-size="36.0" fill="#545454" transform="matrix(1.00, 0.00, -0.00, -1.00, 235.0, 9.6)">s</text><text xml:space="preserve" font-family="CenturyGothic,Century Gothic" font-size="36.0" fill="#545454" transform="matrix(1.00, 0.00, -0.00, -1.00, 249.0, 9.6)">e</text><text xml:space="preserve" font-family="CenturyGothic,Century Gothic" font-size="36.0" fill="#545454" transform="matrix(1.00, 0.00, -0.00, -1.00, 272.4, 9.6)">t</text><text xml:space="preserve" font-family="CenturyGothic,Century Gothic" font-size="36.0" fill="#545454" transform="matrix(1.00, 0.00, -0.00, -1.00, 284.6, 9.6)"> </text><text xml:space="preserve" font-family="CenturyGothic,Century Gothic" font-size="36.0" fill="#545454" transform="matrix(1.00, 0.00, -0.00, -1.00, 294.5, 9.6)">t</text><text xml:space="preserve" font-family="CenturyGothic,Century Gothic" font-size="36.0" fill="#545454" transform="matrix(1.00, 0.00, -0.00, -1.00, 306.7, 9.6)">o</text><text xml:space="preserve" font-family="CenturyGothic,Century Gothic" font-size="36.0" fill="#545454" transform="matrix(1.00, 0.00, -0.00, -1.00, 330.3, 9.6)"> </text><text xml:space="preserve" font-family="CenturyGothic,Century Gothic" font-size="36.0" fill="#545454" transform="matrix(1.00, 0.00, -0.00, -1.00, 340.3, 9.6)">t</text><text xml:space="preserve" font-family="CenturyGothic,Century Gothic" font-size="36.0" fill="#545454" transform="matrix(1.00, 0.00, -0.00, -1.00, 352.5, 9.6)">e</text><text xml:space="preserve" font-family="CenturyGothic,Century Gothic" font-size="36.0" fill="#545454" transform="matrix(1.00, 0.00, -0.00, -1.00, 375.9, 9.6)">s</text><text xml:space="preserve" font-family="CenturyGothic,Century Gothic" font-size="36.0" fill="#545454" transform="matrix(1.00, 0.00, -0.00, -1.00, 389.8, 9.6)">t</text><text xml:space="preserve" font-family="CenturyGothic,Century Gothic" font-size="36.0" fill="#545454" transform="matrix(1.00, 0.00, -0.00, -1.00, 402.0, 9.6)"> </text><text xml:space="preserve" font-family="CenturyGothic,Century Gothic" font-size="36.0" fill="#545454" transform="matrix(1.00, 0.00, -0.00, -1.00, 412.1, 9.6)">s</text><text xml:space="preserve" font-family="CenturyGothic,Century Gothic" font-size="36.0" fill="#545454" transform="matrix(1.00, 0.00, -0.00, -1.00, 426.0, 9.6)">e</text><text xml:space="preserve" font-family="CenturyGothic,Century Gothic" font-size="36.0" fill="#545454" transform="matrix(1.00, 0.00, -0.00, -1.00, 449.4, 9.6)">t</text></g></svg>