<?xml version="1.0" encoding="UTF-8" standalone="no"?><svg xmlns="http://www.w3.org/2000/svg" xmlns:xlink="http://www.w3.org/1999/xlink" clip-rule="evenodd" stroke-miterlimit="10" viewBox="0 0 959 540"><desc>SVG generated by Keynote</desc><defs><radialGradient id="gradSh1.8" cx="0.0" cy="0.0" r="100.0" fx="0.0" fy="0.0" gradientUnits="userSpaceOnUse" gradientTransform="matrix(-2.71, -4.80, -4.80, 2.71, 855.2, 374.8)"><stop offset="0.00000" stop-color="#F2F2F2"></stop><stop offset="0.10411" stop-color="#F3F3F3"></stop><stop offset="0.48680" stop-color="#FEFEFE"></stop><stop offset="1.00000" stop-color="#D9D9D9"></stop></radialGradient></defs><g transform="matrix(1.00, 0.00, -0.00, -1.00, 0.0, 540.0)"><g><clipPath id="clip0x7fccf6afb880"><path d="M 0.0 540.0 L 959.0 540.0 L 959.0 0.0 L 0.0 0.0 Z M 0.0 540.0 "></path></clipPath><g clip-path="url(#clip0x7fccf6afb880)"><path d="M 0.0 540.0 L 959.0 540.0 L 959.0 0.0 L 0.0 0.0 Z M 0.0 540.0 " fill="url(#gradSh1.8)"></path></g></g><text xml:space="preserve" font-family="CenturyGothic-Bold,Century Gothic" font-weight="bold" font-size="36.0" fill="#FF0000" transform="matrix(1.00, 0.00, -0.00, -1.00, 75.2, 445.8)">S</text><text xml:space="preserve" font-family="CenturyGothic-Bold,Century Gothic" font-weight="bold" font-size="36.0" fill="#FF0000" transform="matrix(1.00, 0.00, -0.00, -1.00, 94.0, 445.8)">k</text><text xml:space="preserve" font-family="CenturyGothic-Bold,Century Gothic" font-weight="bold" font-size="36.0" fill="#FF0000" transform="matrix(1.00, 0.00, -0.00, -1.00, 114.8, 445.8)">i</text><text xml:space="preserve" font-family="CenturyGothic-Bold,Century Gothic" font-weight="bold" font-size="36.0" fill="#FF0000" transform="matrix(1.00, 0.00, -0.00, -1.00, 123.5, 445.8)">l</text><text xml:space="preserve" font-family="CenturyGothic-Bold,Century Gothic" font-weight="bold" font-size="36.0" fill="#FF0000" transform="matrix(1.00, 0.00, -0.00, -1.00, 132.1, 445.8)">l</text><text xml:space="preserve" font-family="CenturyGothic-Bold,Century Gothic" font-weight="bold" font-size="36.0" fill="#FF0000" transform="matrix(1.00, 0.00, -0.00, -1.00, 140.7, 445.8)"> </text><text xml:space="preserve" font-family="CenturyGothic-Bold,Century Gothic" font-weight="bold" font-size="36.0" fill="#FF0000" transform="matrix(1.00, 0.00, -0.00, -1.00, 150.8, 445.8)"> </text><text xml:space="preserve" font-family="CenturyGothic-Bold,Century Gothic" font-weight="bold" font-size="36.0" fill="#545454" transform="matrix(1.00, 0.00, -0.00, -1.00, 75.2, 406.2)">=</text><text xml:space="preserve" font-family="CenturyGothic-Bold,Century Gothic" font-weight="bold" font-size="36.0" fill="#545454" transform="matrix(1.00, 0.00, -0.00, -1.00, 96.8, 406.2)"> </text><text xml:space="preserve" font-family="CenturyGothic-Bold,Century Gothic" font-weight="bold" font-size="36.0" fill="#545454" transform="matrix(1.00, 0.00, -0.00, -1.00, 106.9, 406.2)">i</text><text xml:space="preserve" font-family="CenturyGothic-Bold,Century Gothic" font-weight="bold" font-size="36.0" fill="#545454" transform="matrix(1.00, 0.00, -0.00, -1.00, 115.6, 406.2)">m</text><text xml:space="preserve" font-family="CenturyGothic-Bold,Century Gothic" font-weight="bold" font-size="36.0" fill="#545454" transform="matrix(1.00, 0.00, -0.00, -1.00, 149.4, 406.2)">p</text><text xml:space="preserve" font-family="CenturyGothic-Bold,Century Gothic" font-weight="bold" font-size="36.0" fill="#545454" transform="matrix(1.00, 0.00, -0.00, -1.00, 173.2, 406.2)">r</text><text xml:space="preserve" font-family="CenturyGothic-Bold,Century Gothic" font-weight="bold" font-size="36.0" fill="#545454" transform="matrix(1.00, 0.00, -0.00, -1.00, 184.7, 406.2)">o</text><text xml:space="preserve" font-family="CenturyGothic-Bold,Century Gothic" font-weight="bold" font-size="36.0" fill="#545454" transform="matrix(1.00, 0.00, -0.00, -1.00, 207.7, 406.2)">v</text><text xml:space="preserve" font-family="CenturyGothic-Bold,Century Gothic" font-weight="bold" font-size="36.0" fill="#545454" transform="matrix(1.00, 0.00, -0.00, -1.00, 227.9, 406.2)">e</text><text xml:space="preserve" font-family="CenturyGothic-Bold,Century Gothic" font-weight="bold" font-size="36.0" fill="#545454" transform="matrix(1.00, 0.00, -0.00, -1.00, 250.9, 406.2)"> </text><text xml:space="preserve" font-family="CenturyGothic-Bold,Century Gothic" font-weight="bold" font-size="36.0" fill="#545454" transform="matrix(1.00, 0.00, -0.00, -1.00, 261.0, 406.2)">s</text><text xml:space="preserve" font-family="CenturyGothic-Bold,Century Gothic" font-weight="bold" font-size="36.0" fill="#545454" transform="matrix(1.00, 0.00, -0.00, -1.00, 276.9, 406.2)">o</text><text xml:space="preserve" font-family="CenturyGothic-Bold,Century Gothic" font-weight="bold" font-size="36.0" fill="#545454" transform="matrix(1.00, 0.00, -0.00, -1.00, 299.9, 406.2)">m</text><text xml:space="preserve" font-family="CenturyGothic-Bold,Century Gothic" font-weight="bold" font-size="36.0" fill="#545454" transform="matrix(1.00, 0.00, -0.00, -1.00, 333.8, 406.2)">e</text><text xml:space="preserve" font-family="CenturyGothic-Bold,Century Gothic" font-weight="bold" font-size="36.0" fill="#545454" transform="matrix(1.00, 0.00, -0.00, -1.00, 356.8, 406.2)"> </text><text xml:space="preserve" font-family="CenturyGothic-Bold,Century Gothic" font-weight="bold" font-size="36.0" fill="#545454" transform="matrix(1.00, 0.00, -0.00, -1.00, 366.9, 406.2)">p</text><text xml:space="preserve" font-family="CenturyGothic-Bold,Century Gothic" font-weight="bold" font-size="36.0" fill="#545454" transform="matrix(1.00, 0.00, -0.00, -1.00, 390.6, 406.2)">e</text><text xml:space="preserve" font-family="CenturyGothic-Bold,Century Gothic" font-weight="bold" font-size="36.0" fill="#545454" transform="matrix(1.00, 0.00, -0.00, -1.00, 413.7, 406.2)">r</text><text xml:space="preserve" font-family="CenturyGothic-Bold,Century Gothic" font-weight="bold" font-size="36.0" fill="#545454" transform="matrix(1.00, 0.00, -0.00, -1.00, 425.2, 406.2)">f</text><text xml:space="preserve" font-family="CenturyGothic-Bold,Century Gothic" font-weight="bold" font-size="36.0" fill="#545454" transform="matrix(1.00, 0.00, -0.00, -1.00, 435.3, 406.2)">o</text><text xml:space="preserve" font-family="CenturyGothic-Bold,Century Gothic" font-weight="bold" font-size="36.0" fill="#545454" transform="matrix(1.00, 0.00, -0.00, -1.00, 458.3, 406.2)">r</text><text xml:space="preserve" font-family="CenturyGothic-Bold,Century Gothic" font-weight="bold" font-size="36.0" fill="#545454" transform="matrix(1.00, 0.00, -0.00, -1.00, 469.9, 406.2)">m</text><text xml:space="preserve" font-family="CenturyGothic-Bold,Century Gothic" font-weight="bold" font-size="36.0" fill="#545454" transform="matrix(1.00, 0.00, -0.00, -1.00, 503.7, 406.2)">a</text><text xml:space="preserve" font-family="CenturyGothic-Bold,Century Gothic" font-weight="bold" font-size="36.0" fill="#545454" transform="matrix(1.00, 0.00, -0.00, -1.00, 527.5, 406.2)">n</text><text xml:space="preserve" font-family="CenturyGothic-Bold,Century Gothic" font-weight="bold" font-size="36.0" fill="#545454" transform="matrix(1.00, 0.00, -0.00, -1.00, 549.1, 406.2)">c</text><text xml:space="preserve" font-family="CenturyGothic-Bold,Century Gothic" font-weight="bold" font-size="36.0" fill="#545454" transform="matrix(1.00, 0.00, -0.00, -1.00, 572.1, 406.2)">e</text><text xml:space="preserve" font-family="CenturyGothic-Bold,Century Gothic" font-weight="bold" font-size="36.0" fill="#545454" transform="matrix(1.00, 0.00, -0.00, -1.00, 595.2, 406.2)"> </text><text xml:space="preserve" font-family="CenturyGothic-Bold,Century Gothic" font-weight="bold" font-size="36.0" fill="#545454" transform="matrix(1.00, 0.00, -0.00, -1.00, 605.2, 406.2)">m</text><text xml:space="preserve" font-family="CenturyGothic-Bold,Century Gothic" font-weight="bold" font-size="36.0" fill="#545454" transform="matrix(1.00, 0.00, -0.00, -1.00, 639.1, 406.2)">e</text><text xml:space="preserve" font-family="CenturyGothic-Bold,Century Gothic" font-weight="bold" font-size="36.0" fill="#545454" transform="matrix(1.00, 0.00, -0.00, -1.00, 662.1, 406.2)">a</text><text xml:space="preserve" font-family="CenturyGothic-Bold,Century Gothic" font-weight="bold" font-size="36.0" fill="#545454" transform="matrix(1.00, 0.00, -0.00, -1.00, 685.9, 406.2)">s</text><text xml:space="preserve" font-family="CenturyGothic-Bold,Century Gothic" font-weight="bold" font-size="36.0" fill="#545454" transform="matrix(1.00, 0.00, -0.00, -1.00, 701.7, 406.2)">u</text><text xml:space="preserve" font-family="CenturyGothic-Bold,Century Gothic" font-weight="bold" font-size="36.0" fill="#545454" transform="matrix(1.00, 0.00, -0.00, -1.00, 723.4, 406.2)">r</text><text xml:space="preserve" font-family="CenturyGothic-Bold,Century Gothic" font-weight="bold" font-size="36.0" fill="#545454" transform="matrix(1.00, 0.00, -0.00, -1.00, 734.9, 406.2)">e</text><image xlink:href="../../2D2BB9C1-AA35-43A1-B340-4A9D0F088847/assets/A1E33DA27CA5F6115AE218003337A20D.png" width="481.00" height="130.00" transform="matrix(1.62, 0.00, -0.00, -1.62, 94.0, 355.0)"></image></g></svg>