<?xml version="1.0" encoding="UTF-8" standalone="no"?><svg xmlns="http://www.w3.org/2000/svg" xmlns:xlink="http://www.w3.org/1999/xlink" clip-rule="evenodd" stroke-miterlimit="10" viewBox="0 0 684 78"><desc>SVG generated by Keynote</desc><defs></defs><g transform="matrix(1.00, 0.00, -0.00, -1.00, 0.0, 78.0)"><text xml:space="preserve" font-family="CenturyGothic-Bold,Century Gothic" font-weight="bold" font-size="36.0" fill="#FF0000" transform="matrix(1.00, 0.00, -0.00, -1.00, 1.2, 48.8)">S</text><text xml:space="preserve" font-family="CenturyGothic-Bold,Century Gothic" font-weight="bold" font-size="36.0" fill="#FF0000" transform="matrix(1.00, 0.00, -0.00, -1.00, 20.0, 48.8)">k</text><text xml:space="preserve" font-family="CenturyGothic-Bold,Century Gothic" font-weight="bold" font-size="36.0" fill="#FF0000" transform="matrix(1.00, 0.00, -0.00, -1.00, 40.8, 48.8)">i</text><text xml:space="preserve" font-family="CenturyGothic-Bold,Century Gothic" font-weight="bold" font-size="36.0" fill="#FF0000" transform="matrix(1.00, 0.00, -0.00, -1.00, 49.5, 48.8)">l</text><text xml:space="preserve" font-family="CenturyGothic-Bold,Century Gothic" font-weight="bold" font-size="36.0" fill="#FF0000" transform="matrix(1.00, 0.00, -0.00, -1.00, 58.1, 48.8)">l</text><text xml:space="preserve" font-family="CenturyGothic-Bold,Century Gothic" font-weight="bold" font-size="36.0" fill="#FF0000" transform="matrix(1.00, 0.00, -0.00, -1.00, 66.7, 48.8)"> </text><text xml:space="preserve" font-family="CenturyGothic-Bold,Century Gothic" font-weight="bold" font-size="36.0" fill="#FF0000" transform="matrix(1.00, 0.00, -0.00, -1.00, 76.8, 48.8)"> </text><text xml:space="preserve" font-family="CenturyGothic-Bold,Century Gothic" font-weight="bold" font-size="36.0" fill="#545454" transform="matrix(1.00, 0.00, -0.00, -1.00, 1.2, 9.2)">=</text><text xml:space="preserve" font-family="CenturyGothic-Bold,Century Gothic" font-weight="bold" font-size="36.0" fill="#545454" transform="matrix(1.00, 0.00, -0.00, -1.00, 22.8, 9.2)"> </text><text xml:space="preserve" font-family="CenturyGothic-Bold,Century Gothic" font-weight="bold" font-size="36.0" fill="#545454" transform="matrix(1.00, 0.00, -0.00, -1.00, 32.9, 9.2)">i</text><text xml:space="preserve" font-family="CenturyGothic-Bold,Century Gothic" font-weight="bold" font-size="36.0" fill="#545454" transform="matrix(1.00, 0.00, -0.00, -1.00, 41.6, 9.2)">m</text><text xml:space="preserve" font-family="CenturyGothic-Bold,Century Gothic" font-weight="bold" font-size="36.0" fill="#545454" transform="matrix(1.00, 0.00, -0.00, -1.00, 75.4, 9.2)">p</text><text xml:space="preserve" font-family="CenturyGothic-Bold,Century Gothic" font-weight="bold" font-size="36.0" fill="#545454" transform="matrix(1.00, 0.00, -0.00, -1.00, 99.2, 9.2)">r</text><text xml:space="preserve" font-family="CenturyGothic-Bold,Century Gothic" font-weight="bold" font-size="36.0" fill="#545454" transform="matrix(1.00, 0.00, -0.00, -1.00, 110.7, 9.2)">o</text><text xml:space="preserve" font-family="CenturyGothic-Bold,Century Gothic" font-weight="bold" font-size="36.0" fill="#545454" transform="matrix(1.00, 0.00, -0.00, -1.00, 133.7, 9.2)">v</text><text xml:space="preserve" font-family="CenturyGothic-Bold,Century Gothic" font-weight="bold" font-size="36.0" fill="#545454" transform="matrix(1.00, 0.00, -0.00, -1.00, 153.9, 9.2)">e</text><text xml:space="preserve" font-family="CenturyGothic-Bold,Century Gothic" font-weight="bold" font-size="36.0" fill="#545454" transform="matrix(1.00, 0.00, -0.00, -1.00, 176.9, 9.2)"> </text><text xml:space="preserve" font-family="CenturyGothic-Bold,Century Gothic" font-weight="bold" font-size="36.0" fill="#545454" transform="matrix(1.00, 0.00, -0.00, -1.00, 187.0, 9.2)">s</text><text xml:space="preserve" font-family="CenturyGothic-Bold,Century Gothic" font-weight="bold" font-size="36.0" fill="#545454" transform="matrix(1.00, 0.00, -0.00, -1.00, 202.9, 9.2)">o</text><text xml:space="preserve" font-family="CenturyGothic-Bold,Century Gothic" font-weight="bold" font-size="36.0" fill="#545454" transform="matrix(1.00, 0.00, -0.00, -1.00, 225.9, 9.2)">m</text><text xml:space="preserve" font-family="CenturyGothic-Bold,Century Gothic" font-weight="bold" font-size="36.0" fill="#545454" transform="matrix(1.00, 0.00, -0.00, -1.00, 259.8, 9.2)">e</text><text xml:space="preserve" font-family="CenturyGothic-Bold,Century Gothic" font-weight="bold" font-size="36.0" fill="#545454" transform="matrix(1.00, 0.00, -0.00, -1.00, 282.8, 9.2)"> </text><text xml:space="preserve" font-family="CenturyGothic-Bold,Century Gothic" font-weight="bold" font-size="36.0" fill="#545454" transform="matrix(1.00, 0.00, -0.00, -1.00, 292.9, 9.2)">p</text><text xml:space="preserve" font-family="CenturyGothic-Bold,Century Gothic" font-weight="bold" font-size="36.0" fill="#545454" transform="matrix(1.00, 0.00, -0.00, -1.00, 316.6, 9.2)">e</text><text xml:space="preserve" font-family="CenturyGothic-Bold,Century Gothic" font-weight="bold" font-size="36.0" fill="#545454" transform="matrix(1.00, 0.00, -0.00, -1.00, 339.7, 9.2)">r</text><text xml:space="preserve" font-family="CenturyGothic-Bold,Century Gothic" font-weight="bold" font-size="36.0" fill="#545454" transform="matrix(1.00, 0.00, -0.00, -1.00, 351.2, 9.2)">f</text><text xml:space="preserve" font-family="CenturyGothic-Bold,Century Gothic" font-weight="bold" font-size="36.0" fill="#545454" transform="matrix(1.00, 0.00, -0.00, -1.00, 361.3, 9.2)">o</text><text xml:space="preserve" font-family="CenturyGothic-Bold,Century Gothic" font-weight="bold" font-size="36.0" fill="#545454" transform="matrix(1.00, 0.00, -0.00, -1.00, 384.3, 9.2)">r</text><text xml:space="preserve" font-family="CenturyGothic-Bold,Century Gothic" font-weight="bold" font-size="36.0" fill="#545454" transform="matrix(1.00, 0.00, -0.00, -1.00, 395.9, 9.2)">m</text><text xml:space="preserve" font-family="CenturyGothic-Bold,Century Gothic" font-weight="bold" font-size="36.0" fill="#545454" transform="matrix(1.00, 0.00, -0.00, -1.00, 429.7, 9.2)">a</text><text xml:space="preserve" font-family="CenturyGothic-Bold,Century Gothic" font-weight="bold" font-size="36.0" fill="#545454" transform="matrix(1.00, 0.00, -0.00, -1.00, 453.5, 9.2)">n</text><text xml:space="preserve" font-family="CenturyGothic-Bold,Century Gothic" font-weight="bold" font-size="36.0" fill="#545454" transform="matrix(1.00, 0.00, -0.00, -1.00, 475.1, 9.2)">c</text><text xml:space="preserve" font-family="CenturyGothic-Bold,Century Gothic" font-weight="bold" font-size="36.0" fill="#545454" transform="matrix(1.00, 0.00, -0.00, -1.00, 498.1, 9.2)">e</text><text xml:space="preserve" font-family="CenturyGothic-Bold,Century Gothic" font-weight="bold" font-size="36.0" fill="#545454" transform="matrix(1.00, 0.00, -0.00, -1.00, 521.2, 9.2)"> </text><text xml:space="preserve" font-family="CenturyGothic-Bold,Century Gothic" font-weight="bold" font-size="36.0" fill="#545454" transform="matrix(1.00, 0.00, -0.00, -1.00, 531.2, 9.2)">m</text><text xml:space="preserve" font-family="CenturyGothic-Bold,Century Gothic" font-weight="bold" font-size="36.0" fill="#545454" transform="matrix(1.00, 0.00, -0.00, -1.00, 565.1, 9.2)">e</text><text xml:space="preserve" font-family="CenturyGothic-Bold,Century Gothic" font-weight="bold" font-size="36.0" fill="#545454" transform="matrix(1.00, 0.00, -0.00, -1.00, 588.1, 9.2)">a</text><text xml:space="preserve" font-family="CenturyGothic-Bold,Century Gothic" font-weight="bold" font-size="36.0" fill="#545454" transform="matrix(1.00, 0.00, -0.00, -1.00, 611.9, 9.2)">s</text><text xml:space="preserve" font-family="CenturyGothic-Bold,Century Gothic" font-weight="bold" font-size="36.0" fill="#545454" transform="matrix(1.00, 0.00, -0.00, -1.00, 627.7, 9.2)">u</text><text xml:space="preserve" font-family="CenturyGothic-Bold,Century Gothic" font-weight="bold" font-size="36.0" fill="#545454" transform="matrix(1.00, 0.00, -0.00, -1.00, 649.4, 9.2)">r</text><text xml:space="preserve" font-family="CenturyGothic-Bold,Century Gothic" font-weight="bold" font-size="36.0" fill="#545454" transform="matrix(1.00, 0.00, -0.00, -1.00, 660.9, 9.2)">e</text></g></svg>