<?xml version="1.0" encoding="UTF-8" standalone="no"?><svg xmlns="http://www.w3.org/2000/svg" xmlns:xlink="http://www.w3.org/1999/xlink" clip-rule="evenodd" stroke-miterlimit="10" viewBox="0 0 674 187"><desc>SVG generated by Keynote</desc><defs></defs><g transform="matrix(1.00, 0.00, -0.00, -1.00, 0.0, 187.0)"><text xml:space="preserve" font-family="CenturyGothic,Century Gothic" font-size="24.0" fill="#0000FF" transform="matrix(1.00, 0.00, -0.00, -1.00, 0.6, 162.8)">1</text><text xml:space="preserve" font-family="CenturyGothic,Century Gothic" font-size="24.0" fill="#0000FF" transform="matrix(1.00, 0.00, -0.00, -1.00, 13.9, 162.8)">.</text><text xml:space="preserve" font-family="CenturyGothic,Century Gothic" font-size="24.0" fill="#0000FF" transform="matrix(1.00, 0.00, -0.00, -1.00, 36.6, 162.8)">W</text><text xml:space="preserve" font-family="CenturyGothic,Century Gothic" font-size="24.0" fill="#0000FF" transform="matrix(1.00, 0.00, -0.00, -1.00, 59.6, 162.8)">h</text><text xml:space="preserve" font-family="CenturyGothic,Century Gothic" font-size="24.0" fill="#0000FF" transform="matrix(1.00, 0.00, -0.00, -1.00, 74.3, 162.8)">e</text><text xml:space="preserve" font-family="CenturyGothic,Century Gothic" font-size="24.0" fill="#0000FF" transform="matrix(1.00, 0.00, -0.00, -1.00, 89.8, 162.8)">n</text><text xml:space="preserve" font-family="CenturyGothic,Century Gothic" font-size="24.0" fill="#0000FF" transform="matrix(1.00, 0.00, -0.00, -1.00, 104.5, 162.8)"> </text><text xml:space="preserve" font-family="CenturyGothic,Century Gothic" font-size="24.0" fill="#0000FF" transform="matrix(1.00, 0.00, -0.00, -1.00, 111.1, 162.8)">h</text><text xml:space="preserve" font-family="CenturyGothic,Century Gothic" font-size="24.0" fill="#0000FF" transform="matrix(1.00, 0.00, -0.00, -1.00, 125.8, 162.8)">u</text><text xml:space="preserve" font-family="CenturyGothic,Century Gothic" font-size="24.0" fill="#0000FF" transform="matrix(1.00, 0.00, -0.00, -1.00, 140.3, 162.8)">m</text><text xml:space="preserve" font-family="CenturyGothic,Century Gothic" font-size="24.0" fill="#0000FF" transform="matrix(1.00, 0.00, -0.00, -1.00, 162.9, 162.8)">a</text><text xml:space="preserve" font-family="CenturyGothic,Century Gothic" font-size="24.0" fill="#0000FF" transform="matrix(1.00, 0.00, -0.00, -1.00, 179.3, 162.8)">n</text><text xml:space="preserve" font-family="CenturyGothic,Century Gothic" font-size="24.0" fill="#0000FF" transform="matrix(1.00, 0.00, -0.00, -1.00, 193.9, 162.8)"> </text><text xml:space="preserve" font-family="CenturyGothic,Century Gothic" font-size="24.0" fill="#0000FF" transform="matrix(1.00, 0.00, -0.00, -1.00, 200.5, 162.8)">c</text><text xml:space="preserve" font-family="CenturyGothic,Century Gothic" font-size="24.0" fill="#0000FF" transform="matrix(1.00, 0.00, -0.00, -1.00, 216.1, 162.8)">a</text><text xml:space="preserve" font-family="CenturyGothic,Century Gothic" font-size="24.0" fill="#0000FF" transform="matrix(1.00, 0.00, -0.00, -1.00, 232.5, 162.8)">n</text><text xml:space="preserve" font-family="CenturyGothic,Century Gothic" font-size="24.0" fill="#0000FF" transform="matrix(1.00, 0.00, -0.00, -1.00, 247.1, 162.8)">n</text><text xml:space="preserve" font-family="CenturyGothic,Century Gothic" font-size="24.0" fill="#0000FF" transform="matrix(1.00, 0.00, -0.00, -1.00, 261.7, 162.8)">o</text><text xml:space="preserve" font-family="CenturyGothic,Century Gothic" font-size="24.0" fill="#0000FF" transform="matrix(1.00, 0.00, -0.00, -1.00, 277.4, 162.8)">t</text><text xml:space="preserve" font-family="CenturyGothic,Century Gothic" font-size="24.0" fill="#0000FF" transform="matrix(1.00, 0.00, -0.00, -1.00, 285.6, 162.8)"> </text><text xml:space="preserve" font-family="CenturyGothic,Century Gothic" font-size="24.0" fill="#0000FF" transform="matrix(1.00, 0.00, -0.00, -1.00, 292.2, 162.8)">p</text><text xml:space="preserve" font-family="CenturyGothic,Century Gothic" font-size="24.0" fill="#0000FF" transform="matrix(1.00, 0.00, -0.00, -1.00, 308.6, 162.8)">r</text><text xml:space="preserve" font-family="CenturyGothic,Century Gothic" font-size="24.0" fill="#0000FF" transform="matrix(1.00, 0.00, -0.00, -1.00, 315.7, 162.8)">o</text><text xml:space="preserve" font-family="CenturyGothic,Century Gothic" font-size="24.0" fill="#0000FF" transform="matrix(1.00, 0.00, -0.00, -1.00, 331.4, 162.8)">g</text><text xml:space="preserve" font-family="CenturyGothic,Century Gothic" font-size="24.0" fill="#0000FF" transform="matrix(1.00, 0.00, -0.00, -1.00, 347.6, 162.8)">r</text><text xml:space="preserve" font-family="CenturyGothic,Century Gothic" font-size="24.0" fill="#0000FF" transform="matrix(1.00, 0.00, -0.00, -1.00, 354.8, 162.8)">a</text><text xml:space="preserve" font-family="CenturyGothic,Century Gothic" font-size="24.0" fill="#0000FF" transform="matrix(1.00, 0.00, -0.00, -1.00, 371.2, 162.8)">m</text><text xml:space="preserve" font-family="CenturyGothic,Century Gothic" font-size="24.0" fill="#0000FF" transform="matrix(1.00, 0.00, -0.00, -1.00, 393.7, 162.8)"> </text><text xml:space="preserve" font-family="CenturyGothic,Century Gothic" font-size="24.0" fill="#0000FF" transform="matrix(1.00, 0.00, -0.00, -1.00, 400.3, 162.8)">t</text><text xml:space="preserve" font-family="CenturyGothic,Century Gothic" font-size="24.0" fill="#0000FF" transform="matrix(1.00, 0.00, -0.00, -1.00, 408.5, 162.8)">h</text><text xml:space="preserve" font-family="CenturyGothic,Century Gothic" font-size="24.0" fill="#0000FF" transform="matrix(1.00, 0.00, -0.00, -1.00, 423.1, 162.8)">e</text><text xml:space="preserve" font-family="CenturyGothic,Century Gothic" font-size="24.0" fill="#0000FF" transform="matrix(1.00, 0.00, -0.00, -1.00, 438.7, 162.8)"> </text><text xml:space="preserve" font-family="CenturyGothic,Century Gothic" font-size="24.0" fill="#0000FF" transform="matrix(1.00, 0.00, -0.00, -1.00, 445.3, 162.8)">s</text><text xml:space="preserve" font-family="CenturyGothic,Century Gothic" font-size="24.0" fill="#0000FF" transform="matrix(1.00, 0.00, -0.00, -1.00, 454.6, 162.8)">y</text><text xml:space="preserve" font-family="CenturyGothic,Century Gothic" font-size="24.0" fill="#0000FF" transform="matrix(1.00, 0.00, -0.00, -1.00, 467.5, 162.8)">s</text><text xml:space="preserve" font-family="CenturyGothic,Century Gothic" font-size="24.0" fill="#0000FF" transform="matrix(1.00, 0.00, -0.00, -1.00, 476.8, 162.8)">t</text><text xml:space="preserve" font-family="CenturyGothic,Century Gothic" font-size="24.0" fill="#0000FF" transform="matrix(1.00, 0.00, -0.00, -1.00, 485.0, 162.8)">e</text><text xml:space="preserve" font-family="CenturyGothic,Century Gothic" font-size="24.0" fill="#0000FF" transform="matrix(1.00, 0.00, -0.00, -1.00, 500.6, 162.8)">m</text><text xml:space="preserve" font-family="CenturyGothic,Century Gothic" font-size="24.0" fill="#0000FF" transform="matrix(1.00, 0.00, -0.00, -1.00, 523.1, 162.8)"> </text><text xml:space="preserve" font-family="CenturyGothic,Century Gothic" font-size="24.0" fill="#0000FF" transform="matrix(1.00, 0.00, -0.00, -1.00, 529.8, 162.8)">m</text><text xml:space="preserve" font-family="CenturyGothic,Century Gothic" font-size="24.0" fill="#0000FF" transform="matrix(1.00, 0.00, -0.00, -1.00, 552.3, 162.8)">a</text><text xml:space="preserve" font-family="CenturyGothic,Century Gothic" font-size="24.0" fill="#0000FF" transform="matrix(1.00, 0.00, -0.00, -1.00, 568.7, 162.8)">n</text><text xml:space="preserve" font-family="CenturyGothic,Century Gothic" font-size="24.0" fill="#0000FF" transform="matrix(1.00, 0.00, -0.00, -1.00, 583.3, 162.8)">u</text><text xml:space="preserve" font-family="CenturyGothic,Century Gothic" font-size="24.0" fill="#0000FF" transform="matrix(1.00, 0.00, -0.00, -1.00, 597.9, 162.8)">a</text><text xml:space="preserve" font-family="CenturyGothic,Century Gothic" font-size="24.0" fill="#0000FF" transform="matrix(1.00, 0.00, -0.00, -1.00, 614.3, 162.8)">l</text><text xml:space="preserve" font-family="CenturyGothic,Century Gothic" font-size="24.0" fill="#0000FF" transform="matrix(1.00, 0.00, -0.00, -1.00, 619.1, 162.8)">l</text><text xml:space="preserve" font-family="CenturyGothic,Century Gothic" font-size="24.0" fill="#0000FF" transform="matrix(1.00, 0.00, -0.00, -1.00, 623.9, 162.8)">y</text><text xml:space="preserve" font-family="CenturyGothic,Century Gothic" font-size="24.0" fill="#0000FF" transform="matrix(1.00, 0.00, -0.00, -1.00, 636.8, 162.8)"> </text><text xml:space="preserve" font-family="CenturyGothic,Century Gothic" font-size="24.0" fill="#0000FF" transform="matrix(1.00, 0.00, -0.00, -1.00, 0.6, 110.6)">1</text><text xml:space="preserve" font-family="CenturyGothic,Century Gothic" font-size="24.0" fill="#0000FF" transform="matrix(1.00, 0.00, -0.00, -1.00, 13.9, 110.6)">.</text><text xml:space="preserve" font-family="CenturyGothic,Century Gothic" font-size="24.0" fill="#0000FF" transform="matrix(1.00, 0.00, -0.00, -1.00, 36.6, 110.6)">W</text><text xml:space="preserve" font-family="CenturyGothic,Century Gothic" font-size="24.0" fill="#0000FF" transform="matrix(1.00, 0.00, -0.00, -1.00, 59.6, 110.6)">h</text><text xml:space="preserve" font-family="CenturyGothic,Century Gothic" font-size="24.0" fill="#0000FF" transform="matrix(1.00, 0.00, -0.00, -1.00, 74.3, 110.6)">e</text><text xml:space="preserve" font-family="CenturyGothic,Century Gothic" font-size="24.0" fill="#0000FF" transform="matrix(1.00, 0.00, -0.00, -1.00, 89.8, 110.6)">n</text><text xml:space="preserve" font-family="CenturyGothic,Century Gothic" font-size="24.0" fill="#0000FF" transform="matrix(1.00, 0.00, -0.00, -1.00, 104.5, 110.6)"> </text><text xml:space="preserve" font-family="CenturyGothic,Century Gothic" font-size="24.0" fill="#0000FF" transform="matrix(1.00, 0.00, -0.00, -1.00, 111.1, 110.6)">h</text><text xml:space="preserve" font-family="CenturyGothic,Century Gothic" font-size="24.0" fill="#0000FF" transform="matrix(1.00, 0.00, -0.00, -1.00, 125.8, 110.6)">u</text><text xml:space="preserve" font-family="CenturyGothic,Century Gothic" font-size="24.0" fill="#0000FF" transform="matrix(1.00, 0.00, -0.00, -1.00, 140.3, 110.6)">m</text><text xml:space="preserve" font-family="CenturyGothic,Century Gothic" font-size="24.0" fill="#0000FF" transform="matrix(1.00, 0.00, -0.00, -1.00, 162.9, 110.6)">a</text><text xml:space="preserve" font-family="CenturyGothic,Century Gothic" font-size="24.0" fill="#0000FF" transform="matrix(1.00, 0.00, -0.00, -1.00, 179.3, 110.6)">n</text><text xml:space="preserve" font-family="CenturyGothic,Century Gothic" font-size="24.0" fill="#0000FF" transform="matrix(1.00, 0.00, -0.00, -1.00, 193.9, 110.6)"> </text><text xml:space="preserve" font-family="CenturyGothic,Century Gothic" font-size="24.0" fill="#0000FF" transform="matrix(1.00, 0.00, -0.00, -1.00, 200.5, 110.6)">c</text><text xml:space="preserve" font-family="CenturyGothic,Century Gothic" font-size="24.0" fill="#0000FF" transform="matrix(1.00, 0.00, -0.00, -1.00, 216.1, 110.6)">a</text><text xml:space="preserve" font-family="CenturyGothic,Century Gothic" font-size="24.0" fill="#0000FF" transform="matrix(1.00, 0.00, -0.00, -1.00, 232.5, 110.6)">n</text><text xml:space="preserve" font-family="CenturyGothic,Century Gothic" font-size="24.0" fill="#0000FF" transform="matrix(1.00, 0.00, -0.00, -1.00, 247.1, 110.6)">n</text><text xml:space="preserve" font-family="CenturyGothic,Century Gothic" font-size="24.0" fill="#0000FF" transform="matrix(1.00, 0.00, -0.00, -1.00, 261.7, 110.6)">o</text><text xml:space="preserve" font-family="CenturyGothic,Century Gothic" font-size="24.0" fill="#0000FF" transform="matrix(1.00, 0.00, -0.00, -1.00, 277.4, 110.6)">t</text><text xml:space="preserve" font-family="CenturyGothic,Century Gothic" font-size="24.0" fill="#0000FF" transform="matrix(1.00, 0.00, -0.00, -1.00, 285.6, 110.6)"> </text><text xml:space="preserve" font-family="CenturyGothic,Century Gothic" font-size="24.0" fill="#0000FF" transform="matrix(1.00, 0.00, -0.00, -1.00, 292.2, 110.6)">‘</text><text xml:space="preserve" font-family="CenturyGothic,Century Gothic" font-size="24.0" fill="#0000FF" transform="matrix(1.00, 0.00, -0.00, -1.00, 300.6, 110.6)">d</text><text xml:space="preserve" font-family="CenturyGothic,Century Gothic" font-size="24.0" fill="#0000FF" transform="matrix(1.00, 0.00, -0.00, -1.00, 317.1, 110.6)">e</text><text xml:space="preserve" font-family="CenturyGothic,Century Gothic" font-size="24.0" fill="#0000FF" transform="matrix(1.00, 0.00, -0.00, -1.00, 332.7, 110.6)">f</text><text xml:space="preserve" font-family="CenturyGothic,Century Gothic" font-size="24.0" fill="#0000FF" transform="matrix(1.00, 0.00, -0.00, -1.00, 340.2, 110.6)">i</text><text xml:space="preserve" font-family="CenturyGothic,Century Gothic" font-size="24.0" fill="#0000FF" transform="matrix(1.00, 0.00, -0.00, -1.00, 345.0, 110.6)">n</text><text xml:space="preserve" font-family="CenturyGothic,Century Gothic" font-size="24.0" fill="#0000FF" transform="matrix(1.00, 0.00, -0.00, -1.00, 359.7, 110.6)">e</text><text xml:space="preserve" font-family="CenturyGothic,Century Gothic" font-size="24.0" fill="#0000FF" transform="matrix(1.00, 0.00, -0.00, -1.00, 375.2, 110.6)"> </text><text xml:space="preserve" font-family="CenturyGothic,Century Gothic" font-size="24.0" fill="#0000FF" transform="matrix(1.00, 0.00, -0.00, -1.00, 381.9, 110.6)">t</text><text xml:space="preserve" font-family="CenturyGothic,Century Gothic" font-size="24.0" fill="#0000FF" transform="matrix(1.00, 0.00, -0.00, -1.00, 390.0, 110.6)">h</text><text xml:space="preserve" font-family="CenturyGothic,Century Gothic" font-size="24.0" fill="#0000FF" transform="matrix(1.00, 0.00, -0.00, -1.00, 404.7, 110.6)">e</text><text xml:space="preserve" font-family="CenturyGothic,Century Gothic" font-size="24.0" fill="#0000FF" transform="matrix(1.00, 0.00, -0.00, -1.00, 420.3, 110.6)"> </text><text xml:space="preserve" font-family="CenturyGothic,Century Gothic" font-size="24.0" fill="#0000FF" transform="matrix(1.00, 0.00, -0.00, -1.00, 426.9, 110.6)">s</text><text xml:space="preserve" font-family="CenturyGothic,Century Gothic" font-size="24.0" fill="#0000FF" transform="matrix(1.00, 0.00, -0.00, -1.00, 436.2, 110.6)">o</text><text xml:space="preserve" font-family="CenturyGothic,Century Gothic" font-size="24.0" fill="#0000FF" transform="matrix(1.00, 0.00, -0.00, -1.00, 451.9, 110.6)">l</text><text xml:space="preserve" font-family="CenturyGothic,Century Gothic" font-size="24.0" fill="#0000FF" transform="matrix(1.00, 0.00, -0.00, -1.00, 456.7, 110.6)">u</text><text xml:space="preserve" font-family="CenturyGothic,Century Gothic" font-size="24.0" fill="#0000FF" transform="matrix(1.00, 0.00, -0.00, -1.00, 471.3, 110.6)">t</text><text xml:space="preserve" font-family="CenturyGothic,Century Gothic" font-size="24.0" fill="#0000FF" transform="matrix(1.00, 0.00, -0.00, -1.00, 479.5, 110.6)">i</text><text xml:space="preserve" font-family="CenturyGothic,Century Gothic" font-size="24.0" fill="#0000FF" transform="matrix(1.00, 0.00, -0.00, -1.00, 484.3, 110.6)">o</text><text xml:space="preserve" font-family="CenturyGothic,Century Gothic" font-size="24.0" fill="#0000FF" transform="matrix(1.00, 0.00, -0.00, -1.00, 500.0, 110.6)">n</text><text xml:space="preserve" font-family="CenturyGothic,Century Gothic" font-size="24.0" fill="#0000FF" transform="matrix(1.00, 0.00, -0.00, -1.00, 514.6, 110.6)">’</text><text xml:space="preserve" font-family="CenturyGothic,Century Gothic" font-size="24.0" fill="#0000FF" transform="matrix(1.00, 0.00, -0.00, -1.00, 523.0, 110.6)"> </text><text xml:space="preserve" font-family="CenturyGothic,Century Gothic" font-size="24.0" fill="#0000FF" transform="matrix(1.00, 0.00, -0.00, -1.00, 529.7, 110.6)">e</text><text xml:space="preserve" font-family="CenturyGothic,Century Gothic" font-size="24.0" fill="#0000FF" transform="matrix(1.00, 0.00, -0.00, -1.00, 545.3, 110.6)">a</text><text xml:space="preserve" font-family="CenturyGothic,Century Gothic" font-size="24.0" fill="#0000FF" transform="matrix(1.00, 0.00, -0.00, -1.00, 561.7, 110.6)">s</text><text xml:space="preserve" font-family="CenturyGothic,Century Gothic" font-size="24.0" fill="#0000FF" transform="matrix(1.00, 0.00, -0.00, -1.00, 571.0, 110.6)">i</text><text xml:space="preserve" font-family="CenturyGothic,Century Gothic" font-size="24.0" fill="#0000FF" transform="matrix(1.00, 0.00, -0.00, -1.00, 575.8, 110.6)">l</text><text xml:space="preserve" font-family="CenturyGothic,Century Gothic" font-size="24.0" fill="#0000FF" transform="matrix(1.00, 0.00, -0.00, -1.00, 580.6, 110.6)">y</text><text xml:space="preserve" font-family="CenturyGothic,Century Gothic" font-size="24.0" fill="#0000FF" transform="matrix(1.00, 0.00, -0.00, -1.00, 593.5, 110.6)"> </text><text xml:space="preserve" font-family="CenturyGothic,Century Gothic" font-size="24.0" fill="#0000FF" transform="matrix(1.00, 0.00, -0.00, -1.00, 0.6, 58.4)">1</text><text xml:space="preserve" font-family="CenturyGothic,Century Gothic" font-size="24.0" fill="#0000FF" transform="matrix(1.00, 0.00, -0.00, -1.00, 13.9, 58.4)">.</text><text xml:space="preserve" font-family="CenturyGothic,Century Gothic" font-size="24.0" fill="#0000FF" transform="matrix(1.00, 0.00, -0.00, -1.00, 36.6, 58.4)">W</text><text xml:space="preserve" font-family="CenturyGothic,Century Gothic" font-size="24.0" fill="#0000FF" transform="matrix(1.00, 0.00, -0.00, -1.00, 59.6, 58.4)">h</text><text xml:space="preserve" font-family="CenturyGothic,Century Gothic" font-size="24.0" fill="#0000FF" transform="matrix(1.00, 0.00, -0.00, -1.00, 74.3, 58.4)">e</text><text xml:space="preserve" font-family="CenturyGothic,Century Gothic" font-size="24.0" fill="#0000FF" transform="matrix(1.00, 0.00, -0.00, -1.00, 89.8, 58.4)">n</text><text xml:space="preserve" font-family="CenturyGothic,Century Gothic" font-size="24.0" fill="#0000FF" transform="matrix(1.00, 0.00, -0.00, -1.00, 104.5, 58.4)"> </text><text xml:space="preserve" font-family="CenturyGothic,Century Gothic" font-size="24.0" fill="#0000FF" transform="matrix(1.00, 0.00, -0.00, -1.00, 111.1, 58.4)">n</text><text xml:space="preserve" font-family="CenturyGothic,Century Gothic" font-size="24.0" fill="#0000FF" transform="matrix(1.00, 0.00, -0.00, -1.00, 125.8, 58.4)">e</text><text xml:space="preserve" font-family="CenturyGothic,Century Gothic" font-size="24.0" fill="#0000FF" transform="matrix(1.00, 0.00, -0.00, -1.00, 141.4, 58.4)">e</text><text xml:space="preserve" font-family="CenturyGothic,Century Gothic" font-size="24.0" fill="#0000FF" transform="matrix(1.00, 0.00, -0.00, -1.00, 157.0, 58.4)">d</text><text xml:space="preserve" font-family="CenturyGothic,Century Gothic" font-size="24.0" fill="#0000FF" transform="matrix(1.00, 0.00, -0.00, -1.00, 173.4, 58.4)">i</text><text xml:space="preserve" font-family="CenturyGothic,Century Gothic" font-size="24.0" fill="#0000FF" transform="matrix(1.00, 0.00, -0.00, -1.00, 178.2, 58.4)">n</text><text xml:space="preserve" font-family="CenturyGothic,Century Gothic" font-size="24.0" fill="#0000FF" transform="matrix(1.00, 0.00, -0.00, -1.00, 192.8, 58.4)">g</text><text xml:space="preserve" font-family="CenturyGothic,Century Gothic" font-size="24.0" fill="#0000FF" transform="matrix(1.00, 0.00, -0.00, -1.00, 209.0, 58.4)"> </text><text xml:space="preserve" font-family="CenturyGothic,Century Gothic" font-size="24.0" fill="#0000FF" transform="matrix(1.00, 0.00, -0.00, -1.00, 215.6, 58.4)">r</text><text xml:space="preserve" font-family="CenturyGothic,Century Gothic" font-size="24.0" fill="#0000FF" transform="matrix(1.00, 0.00, -0.00, -1.00, 222.8, 58.4)">a</text><text xml:space="preserve" font-family="CenturyGothic,Century Gothic" font-size="24.0" fill="#0000FF" transform="matrix(1.00, 0.00, -0.00, -1.00, 239.2, 58.4)">p</text><text xml:space="preserve" font-family="CenturyGothic,Century Gothic" font-size="24.0" fill="#0000FF" transform="matrix(1.00, 0.00, -0.00, -1.00, 255.6, 58.4)">i</text><text xml:space="preserve" font-family="CenturyGothic,Century Gothic" font-size="24.0" fill="#0000FF" transform="matrix(1.00, 0.00, -0.00, -1.00, 260.4, 58.4)">d</text><text xml:space="preserve" font-family="CenturyGothic,Century Gothic" font-size="24.0" fill="#0000FF" transform="matrix(1.00, 0.00, -0.00, -1.00, 276.9, 58.4)"> </text><text xml:space="preserve" font-family="CenturyGothic,Century Gothic" font-size="24.0" fill="#0000FF" transform="matrix(1.00, 0.00, -0.00, -1.00, 283.5, 58.4)">d</text><text xml:space="preserve" font-family="CenturyGothic,Century Gothic" font-size="24.0" fill="#0000FF" transform="matrix(1.00, 0.00, -0.00, -1.00, 299.9, 58.4)">e</text><text xml:space="preserve" font-family="CenturyGothic,Century Gothic" font-size="24.0" fill="#0000FF" transform="matrix(1.00, 0.00, -0.00, -1.00, 315.5, 58.4)">c</text><text xml:space="preserve" font-family="CenturyGothic,Century Gothic" font-size="24.0" fill="#0000FF" transform="matrix(1.00, 0.00, -0.00, -1.00, 331.1, 58.4)">i</text><text xml:space="preserve" font-family="CenturyGothic,Century Gothic" font-size="24.0" fill="#0000FF" transform="matrix(1.00, 0.00, -0.00, -1.00, 335.9, 58.4)">s</text><text xml:space="preserve" font-family="CenturyGothic,Century Gothic" font-size="24.0" fill="#0000FF" transform="matrix(1.00, 0.00, -0.00, -1.00, 345.2, 58.4)">i</text><text xml:space="preserve" font-family="CenturyGothic,Century Gothic" font-size="24.0" fill="#0000FF" transform="matrix(1.00, 0.00, -0.00, -1.00, 350.0, 58.4)">o</text><text xml:space="preserve" font-family="CenturyGothic,Century Gothic" font-size="24.0" fill="#0000FF" transform="matrix(1.00, 0.00, -0.00, -1.00, 365.7, 58.4)">n</text><text xml:space="preserve" font-family="CenturyGothic,Century Gothic" font-size="24.0" fill="#0000FF" transform="matrix(1.00, 0.00, -0.00, -1.00, 380.4, 58.4)">s</text><text xml:space="preserve" font-family="CenturyGothic,Century Gothic" font-size="24.0" fill="#0000FF" transform="matrix(1.00, 0.00, -0.00, -1.00, 389.7, 58.4)"> </text><text xml:space="preserve" font-family="CenturyGothic,Century Gothic" font-size="24.0" fill="#0000FF" transform="matrix(1.00, 0.00, -0.00, -1.00, 396.3, 58.4)">t</text><text xml:space="preserve" font-family="CenturyGothic,Century Gothic" font-size="24.0" fill="#0000FF" transform="matrix(1.00, 0.00, -0.00, -1.00, 404.5, 58.4)">h</text><text xml:space="preserve" font-family="CenturyGothic,Century Gothic" font-size="24.0" fill="#0000FF" transform="matrix(1.00, 0.00, -0.00, -1.00, 419.1, 58.4)">a</text><text xml:space="preserve" font-family="CenturyGothic,Century Gothic" font-size="24.0" fill="#0000FF" transform="matrix(1.00, 0.00, -0.00, -1.00, 435.5, 58.4)">t</text><text xml:space="preserve" font-family="CenturyGothic,Century Gothic" font-size="24.0" fill="#0000FF" transform="matrix(1.00, 0.00, -0.00, -1.00, 443.6, 58.4)"> </text><text xml:space="preserve" font-family="CenturyGothic,Century Gothic" font-size="24.0" fill="#0000FF" transform="matrix(1.00, 0.00, -0.00, -1.00, 450.3, 58.4)">h</text><text xml:space="preserve" font-family="CenturyGothic,Century Gothic" font-size="24.0" fill="#0000FF" transform="matrix(1.00, 0.00, -0.00, -1.00, 464.9, 58.4)">u</text><text xml:space="preserve" font-family="CenturyGothic,Century Gothic" font-size="24.0" fill="#0000FF" transform="matrix(1.00, 0.00, -0.00, -1.00, 479.5, 58.4)">m</text><text xml:space="preserve" font-family="CenturyGothic,Century Gothic" font-size="24.0" fill="#0000FF" transform="matrix(1.00, 0.00, -0.00, -1.00, 502.0, 58.4)">a</text><text xml:space="preserve" font-family="CenturyGothic,Century Gothic" font-size="24.0" fill="#0000FF" transform="matrix(1.00, 0.00, -0.00, -1.00, 518.4, 58.4)">n</text><text xml:space="preserve" font-family="CenturyGothic,Century Gothic" font-size="24.0" fill="#0000FF" transform="matrix(1.00, 0.00, -0.00, -1.00, 533.0, 58.4)">s</text><text xml:space="preserve" font-family="CenturyGothic,Century Gothic" font-size="24.0" fill="#0000FF" transform="matrix(1.00, 0.00, -0.00, -1.00, 542.3, 58.4)"> </text><text xml:space="preserve" font-family="CenturyGothic,Century Gothic" font-size="24.0" fill="#0000FF" transform="matrix(1.00, 0.00, -0.00, -1.00, 549.0, 58.4)">c</text><text xml:space="preserve" font-family="CenturyGothic,Century Gothic" font-size="24.0" fill="#0000FF" transform="matrix(1.00, 0.00, -0.00, -1.00, 564.5, 58.4)">a</text><text xml:space="preserve" font-family="CenturyGothic,Century Gothic" font-size="24.0" fill="#0000FF" transform="matrix(1.00, 0.00, -0.00, -1.00, 580.9, 58.4)">n</text><text xml:space="preserve" font-family="CenturyGothic,Century Gothic" font-size="24.0" fill="#0000FF" transform="matrix(1.00, 0.00, -0.00, -1.00, 595.5, 58.4)">n</text><text xml:space="preserve" font-family="CenturyGothic,Century Gothic" font-size="24.0" fill="#0000FF" transform="matrix(1.00, 0.00, -0.00, -1.00, 610.2, 58.4)">o</text><text xml:space="preserve" font-family="CenturyGothic,Century Gothic" font-size="24.0" fill="#0000FF" transform="matrix(1.00, 0.00, -0.00, -1.00, 625.9, 58.4)">t</text><text xml:space="preserve" font-family="CenturyGothic,Century Gothic" font-size="24.0" fill="#0000FF" transform="matrix(1.00, 0.00, -0.00, -1.00, 634.0, 58.4)"> </text><text xml:space="preserve" font-family="CenturyGothic,Century Gothic" font-size="24.0" fill="#0000FF" transform="matrix(1.00, 0.00, -0.00, -1.00, 640.7, 58.4)">d</text><text xml:space="preserve" font-family="CenturyGothic,Century Gothic" font-size="24.0" fill="#0000FF" transform="matrix(1.00, 0.00, -0.00, -1.00, 657.1, 58.4)">o</text><text xml:space="preserve" font-family="CenturyGothic,Century Gothic" font-size="24.0" fill="#0000FF" transform="matrix(1.00, 0.00, -0.00, -1.00, 672.8, 58.4)"> </text><text xml:space="preserve" font-family="CenturyGothic,Century Gothic" font-size="24.0" fill="#0000FF" transform="matrix(1.00, 0.00, -0.00, -1.00, 0.6, 6.2)">1</text><text xml:space="preserve" font-family="CenturyGothic,Century Gothic" font-size="24.0" fill="#0000FF" transform="matrix(1.00, 0.00, -0.00, -1.00, 13.9, 6.2)">.</text><text xml:space="preserve" font-family="CenturyGothic,Century Gothic" font-size="24.0" fill="#0000FF" transform="matrix(1.00, 0.00, -0.00, -1.00, 36.6, 6.2)">W</text><text xml:space="preserve" font-family="CenturyGothic,Century Gothic" font-size="24.0" fill="#0000FF" transform="matrix(1.00, 0.00, -0.00, -1.00, 59.6, 6.2)">h</text><text xml:space="preserve" font-family="CenturyGothic,Century Gothic" font-size="24.0" fill="#0000FF" transform="matrix(1.00, 0.00, -0.00, -1.00, 74.3, 6.2)">e</text><text xml:space="preserve" font-family="CenturyGothic,Century Gothic" font-size="24.0" fill="#0000FF" transform="matrix(1.00, 0.00, -0.00, -1.00, 89.8, 6.2)">n</text><text xml:space="preserve" font-family="CenturyGothic,Century Gothic" font-size="24.0" fill="#0000FF" transform="matrix(1.00, 0.00, -0.00, -1.00, 104.5, 6.2)"> </text><text xml:space="preserve" font-family="CenturyGothic,Century Gothic" font-size="24.0" fill="#0000FF" transform="matrix(1.00, 0.00, -0.00, -1.00, 111.1, 6.2)">n</text><text xml:space="preserve" font-family="CenturyGothic,Century Gothic" font-size="24.0" fill="#0000FF" transform="matrix(1.00, 0.00, -0.00, -1.00, 125.8, 6.2)">e</text><text xml:space="preserve" font-family="CenturyGothic,Century Gothic" font-size="24.0" fill="#0000FF" transform="matrix(1.00, 0.00, -0.00, -1.00, 141.4, 6.2)">e</text><text xml:space="preserve" font-family="CenturyGothic,Century Gothic" font-size="24.0" fill="#0000FF" transform="matrix(1.00, 0.00, -0.00, -1.00, 157.0, 6.2)">d</text><text xml:space="preserve" font-family="CenturyGothic,Century Gothic" font-size="24.0" fill="#0000FF" transform="matrix(1.00, 0.00, -0.00, -1.00, 173.4, 6.2)">i</text><text xml:space="preserve" font-family="CenturyGothic,Century Gothic" font-size="24.0" fill="#0000FF" transform="matrix(1.00, 0.00, -0.00, -1.00, 178.2, 6.2)">n</text><text xml:space="preserve" font-family="CenturyGothic,Century Gothic" font-size="24.0" fill="#0000FF" transform="matrix(1.00, 0.00, -0.00, -1.00, 192.8, 6.2)">g</text><text xml:space="preserve" font-family="CenturyGothic,Century Gothic" font-size="24.0" fill="#0000FF" transform="matrix(1.00, 0.00, -0.00, -1.00, 209.0, 6.2)"> </text><text xml:space="preserve" font-family="CenturyGothic,Century Gothic" font-size="24.0" fill="#0000FF" transform="matrix(1.00, 0.00, -0.00, -1.00, 215.6, 6.2)">t</text><text xml:space="preserve" font-family="CenturyGothic,Century Gothic" font-size="24.0" fill="#0000FF" transform="matrix(1.00, 0.00, -0.00, -1.00, 223.8, 6.2)">o</text><text xml:space="preserve" font-family="CenturyGothic,Century Gothic" font-size="24.0" fill="#0000FF" transform="matrix(1.00, 0.00, -0.00, -1.00, 239.5, 6.2)"> </text><text xml:space="preserve" font-family="CenturyGothic,Century Gothic" font-size="24.0" fill="#0000FF" transform="matrix(1.00, 0.00, -0.00, -1.00, 246.1, 6.2)">b</text><text xml:space="preserve" font-family="CenturyGothic,Century Gothic" font-size="24.0" fill="#0000FF" transform="matrix(1.00, 0.00, -0.00, -1.00, 262.5, 6.2)">e</text><text xml:space="preserve" font-family="CenturyGothic,Century Gothic" font-size="24.0" fill="#0000FF" transform="matrix(1.00, 0.00, -0.00, -1.00, 278.1, 6.2)"> </text><text xml:space="preserve" font-family="CenturyGothic,Century Gothic" font-size="24.0" fill="#0000FF" transform="matrix(1.00, 0.00, -0.00, -1.00, 284.7, 6.2)">u</text><text xml:space="preserve" font-family="CenturyGothic,Century Gothic" font-size="24.0" fill="#0000FF" transform="matrix(1.00, 0.00, -0.00, -1.00, 299.3, 6.2)">s</text><text xml:space="preserve" font-family="CenturyGothic,Century Gothic" font-size="24.0" fill="#0000FF" transform="matrix(1.00, 0.00, -0.00, -1.00, 308.6, 6.2)">e</text><text xml:space="preserve" font-family="CenturyGothic,Century Gothic" font-size="24.0" fill="#0000FF" transform="matrix(1.00, 0.00, -0.00, -1.00, 324.2, 6.2)">r</text><text xml:space="preserve" font-family="CenturyGothic,Century Gothic" font-size="24.0" fill="#0000FF" transform="matrix(1.00, 0.00, -0.00, -1.00, 331.4, 6.2)">-</text><text xml:space="preserve" font-family="CenturyGothic,Century Gothic" font-size="24.0" fill="#0000FF" transform="matrix(1.00, 0.00, -0.00, -1.00, 339.4, 6.2)">o</text><text xml:space="preserve" font-family="CenturyGothic,Century Gothic" font-size="24.0" fill="#0000FF" transform="matrix(1.00, 0.00, -0.00, -1.00, 355.1, 6.2)">r</text><text xml:space="preserve" font-family="CenturyGothic,Century Gothic" font-size="24.0" fill="#0000FF" transform="matrix(1.00, 0.00, -0.00, -1.00, 362.3, 6.2)">i</text><text xml:space="preserve" font-family="CenturyGothic,Century Gothic" font-size="24.0" fill="#0000FF" transform="matrix(1.00, 0.00, -0.00, -1.00, 367.1, 6.2)">e</text><text xml:space="preserve" font-family="CenturyGothic,Century Gothic" font-size="24.0" fill="#0000FF" transform="matrix(1.00, 0.00, -0.00, -1.00, 382.7, 6.2)">n</text><text xml:space="preserve" font-family="CenturyGothic,Century Gothic" font-size="24.0" fill="#0000FF" transform="matrix(1.00, 0.00, -0.00, -1.00, 397.4, 6.2)">t</text><text xml:space="preserve" font-family="CenturyGothic,Century Gothic" font-size="24.0" fill="#0000FF" transform="matrix(1.00, 0.00, -0.00, -1.00, 405.5, 6.2)">e</text><text xml:space="preserve" font-family="CenturyGothic,Century Gothic" font-size="24.0" fill="#0000FF" transform="matrix(1.00, 0.00, -0.00, -1.00, 421.1, 6.2)">d</text><text xml:space="preserve" font-family="CenturyGothic,Century Gothic" font-size="24.0" fill="#0000FF" transform="matrix(1.00, 0.00, -0.00, -1.00, 437.5, 6.2)"> </text><text xml:space="preserve" font-family="CenturyGothic,Century Gothic" font-size="24.0" fill="#0000FF" transform="matrix(1.00, 0.00, -0.00, -1.00, 444.2, 6.2)">i</text><text xml:space="preserve" font-family="CenturyGothic,Century Gothic" font-size="24.0" fill="#0000FF" transform="matrix(1.00, 0.00, -0.00, -1.00, 449.0, 6.2)">n</text><text xml:space="preserve" font-family="CenturyGothic,Century Gothic" font-size="24.0" fill="#0000FF" transform="matrix(1.00, 0.00, -0.00, -1.00, 463.6, 6.2)"> </text><text xml:space="preserve" font-family="CenturyGothic,Century Gothic" font-size="24.0" fill="#0000FF" transform="matrix(1.00, 0.00, -0.00, -1.00, 470.3, 6.2)">a</text><text xml:space="preserve" font-family="CenturyGothic,Century Gothic" font-size="24.0" fill="#0000FF" transform="matrix(1.00, 0.00, -0.00, -1.00, 486.7, 6.2)"> </text><text xml:space="preserve" font-family="CenturyGothic,Century Gothic" font-size="24.0" fill="#0000FF" transform="matrix(1.00, 0.00, -0.00, -1.00, 493.3, 6.2)">m</text><text xml:space="preserve" font-family="CenturyGothic,Century Gothic" font-size="24.0" fill="#0000FF" transform="matrix(1.00, 0.00, -0.00, -1.00, 515.8, 6.2)">a</text><text xml:space="preserve" font-family="CenturyGothic,Century Gothic" font-size="24.0" fill="#0000FF" transform="matrix(1.00, 0.00, -0.00, -1.00, 532.2, 6.2)">s</text><text xml:space="preserve" font-family="CenturyGothic,Century Gothic" font-size="24.0" fill="#0000FF" transform="matrix(1.00, 0.00, -0.00, -1.00, 541.5, 6.2)">s</text><text xml:space="preserve" font-family="CenturyGothic,Century Gothic" font-size="24.0" fill="#0000FF" transform="matrix(1.00, 0.00, -0.00, -1.00, 550.9, 6.2)">i</text><text xml:space="preserve" font-family="CenturyGothic,Century Gothic" font-size="24.0" fill="#0000FF" transform="matrix(1.00, 0.00, -0.00, -1.00, 555.7, 6.2)">v</text><text xml:space="preserve" font-family="CenturyGothic,Century Gothic" font-size="24.0" fill="#0000FF" transform="matrix(1.00, 0.00, -0.00, -1.00, 569.0, 6.2)">e</text><text xml:space="preserve" font-family="CenturyGothic,Century Gothic" font-size="24.0" fill="#0000FF" transform="matrix(1.00, 0.00, -0.00, -1.00, 584.6, 6.2)"> </text><text xml:space="preserve" font-family="CenturyGothic,Century Gothic" font-size="24.0" fill="#0000FF" transform="matrix(1.00, 0.00, -0.00, -1.00, 591.2, 6.2)">s</text><text xml:space="preserve" font-family="CenturyGothic,Century Gothic" font-size="24.0" fill="#0000FF" transform="matrix(1.00, 0.00, -0.00, -1.00, 600.6, 6.2)">c</text><text xml:space="preserve" font-family="CenturyGothic,Century Gothic" font-size="24.0" fill="#0000FF" transform="matrix(1.00, 0.00, -0.00, -1.00, 616.1, 6.2)">a</text><text xml:space="preserve" font-family="CenturyGothic,Century Gothic" font-size="24.0" fill="#0000FF" transform="matrix(1.00, 0.00, -0.00, -1.00, 632.5, 6.2)">l</text><text xml:space="preserve" font-family="CenturyGothic,Century Gothic" font-size="24.0" fill="#0000FF" transform="matrix(1.00, 0.00, -0.00, -1.00, 637.3, 6.2)">e</text><text xml:space="preserve" font-family="CenturyGothic,Century Gothic" font-size="24.0" fill="#0000FF" transform="matrix(1.00, 0.00, -0.00, -1.00, 652.9, 6.2)"> </text></g></svg>