<?xml version="1.0" encoding="UTF-8" standalone="no"?><svg xmlns="http://www.w3.org/2000/svg" xmlns:xlink="http://www.w3.org/1999/xlink" clip-rule="evenodd" stroke-miterlimit="10" viewBox="0 0 274 34"><desc>SVG generated by Keynote</desc><defs></defs><g transform="matrix(1.00, 0.00, -0.00, -1.00, 0.0, 34.0)"><g><clipPath id="clip0x7fccfa09ee00"><path d="M 0.0 0.0 L 274.0 0.0 L 274.0 34.0 L 0.0 34.0 Z M 0.0 0.0 "></path></clipPath><g clip-path="url(#clip0x7fccfa09ee00)"><text xml:space="preserve" font-family="CenturyGothic,Century Gothic" font-size="40.0" fill="#2A2A2A" transform="matrix(1.00, 0.00, -0.00, -1.00, -1.4, 3.0)">R</text><text xml:space="preserve" font-family="CenturyGothic,Century Gothic" font-size="40.0" fill="#2A2A2A" transform="matrix(1.00, 0.00, -0.00, -1.00, 22.8, 3.0)">E</text><text xml:space="preserve" font-family="CenturyGothic,Century Gothic" font-size="40.0" fill="#2A2A2A" transform="matrix(1.00, 0.00, -0.00, -1.00, 44.3, 3.0)">C</text><text xml:space="preserve" font-family="CenturyGothic,Century Gothic" font-size="40.0" fill="#2A2A2A" transform="matrix(1.00, 0.00, -0.00, -1.00, 76.8, 3.0)">O</text><text xml:space="preserve" font-family="CenturyGothic,Century Gothic" font-size="40.0" fill="#2A2A2A" transform="matrix(1.00, 0.00, -0.00, -1.00, 111.6, 3.0)">G</text><text xml:space="preserve" font-family="CenturyGothic,Century Gothic" font-size="40.0" fill="#2A2A2A" transform="matrix(1.00, 0.00, -0.00, -1.00, 146.5, 3.0)">N</text><text xml:space="preserve" font-family="CenturyGothic,Century Gothic" font-size="40.0" fill="#2A2A2A" transform="matrix(1.00, 0.00, -0.00, -1.00, 176.0, 3.0)">I</text><text xml:space="preserve" font-family="CenturyGothic,Century Gothic" font-size="40.0" fill="#2A2A2A" transform="matrix(1.00, 0.00, -0.00, -1.00, 185.1, 3.0)">T</text><text xml:space="preserve" font-family="CenturyGothic,Century Gothic" font-size="40.0" fill="#2A2A2A" transform="matrix(1.00, 0.00, -0.00, -1.00, 202.1, 3.0)">I</text><text xml:space="preserve" font-family="CenturyGothic,Century Gothic" font-size="40.0" fill="#2A2A2A" transform="matrix(1.00, 0.00, -0.00, -1.00, 211.2, 3.0)">O</text><text xml:space="preserve" font-family="CenturyGothic,Century Gothic" font-size="40.0" fill="#2A2A2A" transform="matrix(1.00, 0.00, -0.00, -1.00, 245.9, 3.0)">N</text></g></g></g></svg>