<?xml version="1.0" encoding="UTF-8" standalone="no"?><svg xmlns="http://www.w3.org/2000/svg" xmlns:xlink="http://www.w3.org/1999/xlink" clip-rule="evenodd" stroke-miterlimit="10" viewBox="0 0 959 540"><desc>SVG generated by Keynote</desc><defs><radialGradient id="gradSh1.11" cx="0.0" cy="0.0" r="100.0" fx="0.0" fy="0.0" gradientUnits="userSpaceOnUse" gradientTransform="matrix(-2.71, -4.80, -4.80, 2.71, 855.2, 374.8)"><stop offset="0.00000" stop-color="#F2F2F2"></stop><stop offset="0.10411" stop-color="#F3F3F3"></stop><stop offset="0.48680" stop-color="#FEFEFE"></stop><stop offset="1.00000" stop-color="#D9D9D9"></stop></radialGradient></defs><g transform="matrix(1.00, 0.00, -0.00, -1.00, 0.0, 540.0)"><g><clipPath id="clip0x7fccfa37ba30"><path d="M 0.0 540.0 L 959.0 540.0 L 959.0 0.0 L 0.0 0.0 Z M 0.0 540.0 "></path></clipPath><g clip-path="url(#clip0x7fccfa37ba30)"><path d="M 0.0 540.0 L 959.0 540.0 L 959.0 0.0 L 0.0 0.0 Z M 0.0 540.0 " fill="url(#gradSh1.11)"></path></g></g><g><clipPath id="clip0x7fccfa43b6f0"><path d="M 87.2 418.0 L 872.5 418.0 L 872.5 514.8 L 87.2 514.8 Z M 87.2 418.0 "></path></clipPath><g clip-path="url(#clip0x7fccfa43b6f0)"><text xml:space="preserve" font-family="CenturyGothic,Century Gothic" font-size="40.0" fill="#FF0000" transform="matrix(1.00, 0.00, -0.00, -1.00, 99.5, 426.6)">U</text><text xml:space="preserve" font-family="CenturyGothic,Century Gothic" font-size="40.0" fill="#FF0000" transform="matrix(1.00, 0.00, -0.00, -1.00, 125.7, 426.6)">S</text><text xml:space="preserve" font-family="CenturyGothic,Century Gothic" font-size="40.0" fill="#FF0000" transform="matrix(1.00, 0.00, -0.00, -1.00, 145.6, 426.6)">E</text><text xml:space="preserve" font-family="CenturyGothic,Century Gothic" font-size="40.0" fill="#FF0000" transform="matrix(1.00, 0.00, -0.00, -1.00, 167.0, 426.6)"> </text><text xml:space="preserve" font-family="CenturyGothic,Century Gothic" font-size="40.0" fill="#FF0000" transform="matrix(1.00, 0.00, -0.00, -1.00, 178.1, 426.6)">S</text><text xml:space="preserve" font-family="CenturyGothic,Century Gothic" font-size="40.0" fill="#FF0000" transform="matrix(1.00, 0.00, -0.00, -1.00, 198.0, 426.6)">C</text><text xml:space="preserve" font-family="CenturyGothic,Century Gothic" font-size="40.0" fill="#FF0000" transform="matrix(1.00, 0.00, -0.00, -1.00, 230.5, 426.6)">E</text><text xml:space="preserve" font-family="CenturyGothic,Century Gothic" font-size="40.0" fill="#FF0000" transform="matrix(1.00, 0.00, -0.00, -1.00, 252.0, 426.6)">N</text><text xml:space="preserve" font-family="CenturyGothic,Century Gothic" font-size="40.0" fill="#FF0000" transform="matrix(1.00, 0.00, -0.00, -1.00, 281.6, 426.6)">A</text><text xml:space="preserve" font-family="CenturyGothic,Century Gothic" font-size="40.0" fill="#FF0000" transform="matrix(1.00, 0.00, -0.00, -1.00, 311.1, 426.6)">R</text><text xml:space="preserve" font-family="CenturyGothic,Century Gothic" font-size="40.0" fill="#FF0000" transform="matrix(1.00, 0.00, -0.00, -1.00, 335.4, 426.6)">I</text><text xml:space="preserve" font-family="CenturyGothic,Century Gothic" font-size="40.0" fill="#FF0000" transform="matrix(1.00, 0.00, -0.00, -1.00, 344.5, 426.6)">O</text><text xml:space="preserve" font-family="CenturyGothic,Century Gothic" font-size="40.0" fill="#FF0000" transform="matrix(1.00, 0.00, -0.00, -1.00, 379.2, 426.6)">S</text></g></g></g></svg>